# xmcd CD database file
#
# Track frame offsets:
#	150
#	16304
#	42885
#	63269
#	77017
#	93364
#	115324
#	134018
#	150616
#	175073
#	192162
#	215047
#	246494
#	270532
#	286301
#	310372
#
# Disc length: 4503 seconds
#
# Revision: 0
# Processed by: cddbd v1.5.2PL0 Copyright (c) Steve Scherf et al.
# Submitted via: CDex 2.17
#
DISCID=e4119510
DTITLE=Arlen Roth - Tele Masters
DYEAR=1900
DGENRE=Country
TTITLE0=Remington Ride - Steve Wariner Cindy Cashdollar
TTITLE1=Key to the Highway - Jack Pearson
TTITLE2=White Lightning - Steve Cropper
TTITLE3=Bunky - Brad Paisley
TTITLE4=Rumble - Will Ray
TTITLE5=Mrs. Robinson - Albert Lee
TTITLE6=Satisfied Mind - Vince Gill
TTITLE7=Roadworthy - Brent Mason
TTITLE8=I can fix it - Jack Pearson
TTITLE9=Tenesse Walz - Lexie Roth
TTITLE10=Joe's Blues - Joe Bonamassa
TTITLE11=Funky Mama - Johnny Hiland
TTITLE12=Ghost Riders in the Sky - Cindy Cashdollar
TTITLE13=Tuff Tele - Bill Kirchen
TTITLE14=Promised Land - Jerry Donahue
TTITLE15=Minor Thing - Redd Volkaert
EXTD=
EXTT0=
EXTT1=
EXTT2=
EXTT3=
EXTT4=
EXTT5=
EXTT6=
EXTT7=
EXTT8=
EXTT9=
EXTT10=
EXTT11=
EXTT12=
EXTT13=
EXTT14=
EXTT15=
PLAYORDER=
